<?xml version="1.0" encoding="utf-8"?>
<!-- Generator: Adobe Illustrator 17.1.0, SVG Export Plug-In . SVG Version: 6.00 Build 0)  -->
<!DOCTYPE svg PUBLIC "-//W3C//DTD SVG 1.1//EN" "http://www.w3.org/Graphics/SVG/1.1/DTD/svg11.dtd">
<svg version="1.1" id="Layer_1" xmlns="http://www.w3.org/2000/svg" xmlns:xlink="http://www.w3.org/1999/xlink" x="0px" y="0px"
	 viewBox="0 0 441 36" enable-background="new 0 0 441 36" xml:space="preserve">
<g>
	<path d="M3.875,4.938V3H15.5h11.625v1.938v1.938H23.25h-3.875V18.5v11.625H15.5h-3.875V18.5V6.875H7.75H3.875V4.938z"/>
	<path d="M34.875,12.688V10.75h9.688h9.688v1.938v1.938h1.938h1.938v7.75v7.75H46.5H34.875v-1.938V26.25h-1.938H31v-1.938v-1.938
		h1.938h1.938v-1.938V18.5h7.75h7.75v-1.938v-1.938h-7.75h-7.75V12.688z M50.375,24.313v-1.938h-5.813H38.75v1.938v1.938h5.813
		h5.813V24.313z"/>
	<path d="M62,16.563V10.75h3.875h3.875v5.813v5.813h5.813h5.813v-5.813V10.75h3.875h3.875v9.688v9.688h-1.938H85.25v1.938V34h-9.688
		h-9.688v-1.938v-1.938h7.75h7.75v-1.938V26.25h-7.75h-7.75v-1.938v-1.938h-1.938H62V16.563z"/>
	<path d="M100.75,4.938V3h5.813h5.813v11.625V26.25h3.875h3.875v1.938v1.938H108.5H96.875v-1.938V26.25h3.875h3.875v-9.688V6.875
		h-1.938h-1.938V4.938z"/>
	<path d="M127.875,12.688V10.75h9.688h9.688v1.938v1.938h1.938h1.938v5.813v5.813h-1.938h-1.938v1.938v1.938h-9.688h-9.688v-1.938
		V26.25h-1.938H124v-5.813v-5.813h1.938h1.938V12.688z M143.375,20.438v-5.813h-5.813h-5.813v5.813v5.813h5.813h5.813V20.438z"/>
	<path d="M158.875,20.438V10.75h3.875h3.875v1.938v1.938h1.938h1.938v-1.938V10.75h5.813h5.813v1.938v1.938h-5.813H170.5v1.938V18.5
		h-1.938h-1.938v5.813v5.813h-3.875h-3.875V20.438z"/>
	<path d="M220.875,4.938V3h7.75h7.75v1.938v1.938h1.938h1.938v1.938v1.938h-3.875H232.5V8.813V6.875h-3.875h-3.875v3.875v3.875h7.75
		h7.75v1.938V18.5h1.938h1.938v3.875v3.875h-1.938h-1.938v1.938v1.938h-9.688h-9.688v-1.938V26.25h-1.938H217v-1.938v-1.938h3.875
		h3.875v1.938v1.938h5.813h5.813v-3.875V18.5h-7.75h-7.75v-1.938v-1.938h-1.938H217V10.75V6.875h1.938h1.938V4.938z"/>
	<path d="M248,18.5v-7.75h3.875h3.875v7.75v7.75h5.813h5.813V18.5v-7.75h3.875h3.875v9.688v9.688H263.5h-11.625v-1.938V26.25h-1.938
		H248V18.5z"/>
	<path d="M290.625,6.875V3h3.875h3.875v3.875v3.875h3.875h3.875v1.938v1.938h-3.875h-3.875v7.75v7.75H294.5h-3.875v-7.75v-7.75
		h-3.875h-3.875v-1.938V10.75h3.875h3.875V6.875z"/>
	<path d="M321.625,6.875V3h3.875h3.875v3.875v3.875h3.875h3.875v1.938v1.938h-3.875h-3.875v7.75v7.75H325.5h-3.875v-7.75v-7.75
		h-3.875h-3.875v-1.938V10.75h3.875h3.875V6.875z"/>
	<path d="M344.875,12.688V10.75h9.688h9.688v1.938v1.938h1.938h1.938v5.813v5.813h-1.938h-1.938v1.938v1.938h-9.688h-9.688v-1.938
		V26.25h-1.938H341v-5.813v-5.813h1.938h1.938V12.688z M360.375,20.438v-5.813h-5.813h-5.813v5.813v5.813h5.813h5.813V20.438z"/>
	<path d="M372,20.438V10.75h11.625h11.625v1.938v1.938h1.938h1.938v7.75v7.75h-3.875h-3.875v-7.75v-7.75h-5.813h-5.813v7.75v7.75
		h-3.875H372V20.438z"/>
</g>
</svg>
